<svg width="1728" height="1117" fill="none" xmlns="http://www.w3.org/2000/svg">
  <path fill="#E0E0E0" d="M0 0h1728v1117H0z"/>
  <path d="M99.705 551.418v2.002a7.764 7.764 0 0 0-1.807-.869 5.806 5.806 0 0 0-1.816-.293c-.931 0-1.667.218-2.207.654-.54.43-.81 1.012-.81 1.748 0 .645.175 1.136.527 1.475.358.338 1.022.622 1.992.849l1.035.235c1.367.319 2.363.82 2.988 1.504.625.683.938 1.614.938 2.793 0 1.386-.43 2.444-1.29 3.173-.858.73-2.108 1.094-3.75 1.094-.683 0-1.37-.075-2.06-.224a11.333 11.333 0 0 1-2.08-.655v-2.099c.749.475 1.455.823 2.12 1.045.67.221 1.344.332 2.02.332.997 0 1.772-.222 2.325-.664.553-.45.83-1.075.83-1.875 0-.73-.192-1.286-.576-1.67-.378-.384-1.038-.681-1.982-.889l-1.055-.244c-1.354-.306-2.337-.768-2.95-1.387-.611-.618-.917-1.448-.917-2.49 0-1.302.436-2.344 1.308-3.125.88-.788 2.045-1.182 3.496-1.182.56 0 1.15.065 1.768.196.618.123 1.27.312 1.953.566Zm5.254 3.184h4.6v9.502h3.564v1.396h-8.926v-1.396h3.565v-8.106h-2.803v-1.396Zm2.803-4.248h1.797v2.265h-1.797v-2.265Zm14.541 5.605v-5.654h1.797V565.5h-1.797v-1.377c-.3.54-.7.954-1.201 1.24-.495.28-1.068.42-1.719.42-1.322 0-2.363-.511-3.125-1.533-.755-1.029-1.133-2.445-1.133-4.248 0-1.777.381-3.171 1.143-4.18.761-1.015 1.8-1.523 3.115-1.523.657 0 1.237.143 1.738.43.501.279.895.69 1.182 1.23Zm-5.283 4.082c0 1.393.221 2.445.664 3.154.442.71 1.097 1.065 1.962 1.065.866 0 1.524-.358 1.973-1.074.456-.717.684-1.765.684-3.145 0-1.387-.228-2.435-.684-3.145-.449-.716-1.107-1.074-1.973-1.074-.865 0-1.52.355-1.962 1.065-.443.709-.664 1.761-.664 3.154Zm19.892-.908v.879h-7.783v.058c-.052 1.491.231 2.562.85 3.213.625.651 1.503.977 2.636.977a6.39 6.39 0 0 0 1.797-.274 11.02 11.02 0 0 0 2.002-.83v1.787c-.684.28-1.344.489-1.982.625a8.253 8.253 0 0 1-1.836.215c-1.7 0-3.028-.508-3.985-1.523-.957-1.022-1.435-2.429-1.435-4.219 0-1.745.469-3.138 1.406-4.18.938-1.041 2.188-1.562 3.75-1.562 1.393 0 2.49.472 3.291 1.416.807.944 1.237 2.083 1.289 3.418Zm-1.797-.528a3.443 3.443 0 0 0-.83-1.953c-.469-.553-1.146-.83-2.031-.83-.866 0-1.579.287-2.139.86-.56.573-.866 1.217-.918 1.933l5.918-.01Zm11.875 1.436c0-1.393-.221-2.445-.664-3.154-.443-.71-1.097-1.065-1.963-1.065-.872 0-1.533.358-1.982 1.074-.449.71-.674 1.758-.674 3.145 0 1.38.225 2.428.674 3.145.449.716 1.11 1.074 1.982 1.074.866 0 1.52-.355 1.963-1.065.443-.709.664-1.761.664-3.154Zm-5.283-4.082c.286-.534.68-.944 1.182-1.23.507-.287 1.093-.43 1.757-.43 1.316 0 2.351.508 3.106 1.523.755 1.009 1.133 2.403 1.133 4.18 0 1.803-.381 3.219-1.143 4.248-.755 1.022-1.793 1.533-3.115 1.533-.651 0-1.227-.14-1.729-.42a3.177 3.177 0 0 1-1.191-1.24v1.377h-1.797v-15.195h1.797v5.654Zm15.225 4.043h-.596c-1.048 0-1.839.186-2.373.557-.527.364-.791.911-.791 1.64 0 .658.198 1.169.596 1.533.397.365.947.547 1.65.547.99 0 1.768-.341 2.334-1.025.566-.69.853-1.641.859-2.852v-.4h-1.679Zm3.486-.742v6.24h-1.807v-1.621c-.384.651-.869 1.133-1.455 1.445-.579.306-1.286.459-2.119.459-1.113 0-2.002-.312-2.666-.937-.664-.632-.996-1.475-.996-2.53 0-1.217.407-2.142 1.221-2.773.82-.632 2.021-.947 3.603-.947h2.412v-.284c-.006-.872-.228-1.503-.664-1.894-.436-.397-1.133-.596-2.09-.596-.612 0-1.23.088-1.855.264a8.109 8.109 0 0 0-1.826.771v-1.796a12.214 12.214 0 0 1 1.904-.567 8.55 8.55 0 0 1 1.777-.195c.905 0 1.677.133 2.315.4a3.648 3.648 0 0 1 1.562 1.201c.248.326.424.73.528 1.211.104.476.156 1.192.156 2.149Zm12.988-2.442a4.071 4.071 0 0 0-1.172-.654 3.987 3.987 0 0 0-1.308-.205c-1.12 0-1.976.352-2.569 1.055-.592.703-.888 1.718-.888 3.047v5.439h-1.807v-10.938h1.807v2.139c.299-.775.758-1.367 1.377-1.777.625-.417 1.364-.625 2.216-.625.443 0 .857.055 1.241.166.384.111.752.283 1.103.517v1.836Z" fill="#1E1E1E"/>
  <g filter="url(#a)">
    <path d="M264 20a8 8 0 0 1 8-8h344a8 8 0 0 1 8 8v1077a8 8 0 0 1-8 8H272a8 8 0 0 1-8-8V20Z" fill="#F0F0F0"/>
    <path d="M272 12.5h344a7.5 7.5 0 0 1 7.5 7.5v1077c0 4.14-3.358 7.5-7.5 7.5H272c-4.142 0-7.5-3.36-7.5-7.5V20a7.5 7.5 0 0 1 7.5-7.5Z" stroke="#949494"/>
    <path d="M376.148 564.982a6.657 6.657 0 0 1-1.543.596 6.653 6.653 0 0 1-1.679.205c-1.869 0-3.321-.661-4.356-1.982-1.028-1.322-1.543-3.181-1.543-5.576 0-2.383.518-4.239 1.553-5.567 1.042-1.334 2.49-2.002 4.346-2.002.592 0 1.152.069 1.679.205a6.702 6.702 0 0 1 1.543.596v2.022a5.442 5.442 0 0 0-1.552-.909 4.718 4.718 0 0 0-1.67-.312c-1.283 0-2.243.495-2.881 1.484-.638.99-.957 2.484-.957 4.483 0 1.992.319 3.483.957 4.472.638.99 1.598 1.485 2.881 1.485.573 0 1.133-.105 1.679-.313a5.302 5.302 0 0 0 1.543-.908v2.021Zm7.588-9.16c-.911 0-1.601.355-2.07 1.065-.469.709-.703 1.761-.703 3.154 0 1.387.234 2.438.703 3.154.469.71 1.159 1.065 2.07 1.065.918 0 1.612-.355 2.08-1.065.469-.716.704-1.767.704-3.154 0-1.393-.235-2.445-.704-3.154-.468-.71-1.162-1.065-2.08-1.065Zm0-1.523c1.517 0 2.676.491 3.477 1.474.807.984 1.211 2.406 1.211 4.268 0 1.869-.401 3.294-1.201 4.277-.801.977-1.963 1.465-3.487 1.465-1.517 0-2.675-.488-3.476-1.465-.801-.983-1.201-2.408-1.201-4.277 0-1.862.4-3.284 1.201-4.268.801-.983 1.959-1.474 3.476-1.474Zm16.299 4.424v6.777h-1.806v-6.777c0-.983-.173-1.706-.518-2.168-.345-.463-.885-.694-1.621-.694-.84 0-1.488.3-1.944.899-.449.592-.673 1.445-.673 2.558v6.182h-1.797v-10.938h1.797v1.641c.319-.625.752-1.097 1.298-1.416.547-.325 1.195-.488 1.944-.488 1.113 0 1.943.368 2.49 1.103.553.73.83 1.836.83 3.321Zm7.783-7.266v3.105h4.082v1.397h-4.082v5.937c0 .808.153 1.371.459 1.69.306.319.84.478 1.602.478h2.021v1.436h-2.197c-1.348 0-2.298-.27-2.851-.811-.554-.54-.831-1.471-.831-2.793v-5.937h-2.919v-1.397h2.919v-3.105h1.797Zm16.993 7.676v.879h-7.784v.058c-.052 1.491.231 2.562.85 3.213.625.651 1.504.977 2.637.977a6.39 6.39 0 0 0 1.797-.274 10.983 10.983 0 0 0 2.001-.83v1.787a11.64 11.64 0 0 1-1.982.625 8.24 8.24 0 0 1-1.836.215c-1.699 0-3.027-.508-3.984-1.523-.957-1.022-1.436-2.429-1.436-4.219 0-1.745.469-3.138 1.406-4.18.938-1.041 2.188-1.562 3.75-1.562 1.394 0 2.491.472 3.291 1.416.808.944 1.237 2.083 1.29 3.418Zm-1.797-.528a3.443 3.443 0 0 0-.83-1.953c-.469-.553-1.146-.83-2.032-.83-.866 0-1.578.287-2.138.86-.56.573-.866 1.217-.918 1.933l5.918-.01Zm13.174.118v6.777h-1.807v-6.777c0-.983-.173-1.706-.518-2.168-.345-.463-.885-.694-1.621-.694-.84 0-1.487.3-1.943.899-.449.592-.674 1.445-.674 2.558v6.182h-1.797v-10.938h1.797v1.641c.319-.625.752-1.097 1.299-1.416.547-.325 1.194-.488 1.943-.488 1.113 0 1.944.368 2.49 1.103.554.73.831 1.836.831 3.321Zm7.783-7.266v3.105h4.082v1.397h-4.082v5.937c0 .808.153 1.371.459 1.69.306.319.84.478 1.601.478h2.022v1.436h-2.198c-1.347 0-2.298-.27-2.851-.811-.553-.54-.83-1.471-.83-2.793v-5.937h-2.92v-1.397h2.92v-3.105h1.797Zm20.381-.537h8.584v1.66h-6.602v3.906h5.986v1.66h-5.986v7.354h-1.982v-14.58Zm21.054 5.898a4.071 4.071 0 0 0-1.172-.654 3.987 3.987 0 0 0-1.308-.205c-1.12 0-1.976.352-2.569 1.055-.592.703-.888 1.718-.888 3.047v5.439h-1.807v-10.938h1.807v2.139c.299-.775.758-1.367 1.377-1.777.625-.417 1.364-.625 2.216-.625.443 0 .857.055 1.241.166.384.111.752.283 1.103.517v1.836Zm7.627 3.184h-.595c-1.049 0-1.84.186-2.374.557-.527.364-.791.911-.791 1.64 0 .658.199 1.169.596 1.533.397.365.947.547 1.651.547.989 0 1.767-.341 2.334-1.025.566-.69.852-1.641.859-2.852v-.4h-1.68Zm3.487-.742v6.24h-1.807v-1.621c-.384.651-.869 1.133-1.455 1.445-.58.306-1.286.459-2.119.459-1.114 0-2.002-.312-2.666-.937-.664-.632-.996-1.475-.996-2.53 0-1.217.406-2.142 1.22-2.773.821-.632 2.022-.947 3.604-.947h2.412v-.284c-.007-.872-.228-1.503-.664-1.894-.436-.397-1.133-.596-2.09-.596-.612 0-1.23.088-1.855.264a8.136 8.136 0 0 0-1.827.771v-1.796a12.192 12.192 0 0 1 1.905-.567 8.543 8.543 0 0 1 1.777-.195c.905 0 1.676.133 2.314.4a3.645 3.645 0 0 1 1.563 1.201c.247.326.423.73.527 1.211.104.476.157 1.192.157 2.149Zm8.31-3.584c.221-.469.501-.814.84-1.035.345-.228.758-.342 1.24-.342.879 0 1.498.342 1.856 1.025.364.677.546 1.957.546 3.838v6.338h-1.64v-6.26c0-1.543-.088-2.5-.264-2.871-.169-.377-.482-.566-.937-.566-.521 0-.879.202-1.075.605-.188.397-.283 1.341-.283 2.832v6.26h-1.64v-6.26c0-1.562-.095-2.526-.284-2.89-.182-.365-.514-.547-.996-.547-.475 0-.807.202-.996.605-.182.397-.273 1.341-.273 2.832v6.26h-1.631v-10.938h1.631v.938c.215-.391.482-.687.801-.889a2.003 2.003 0 0 1 1.103-.312c.495 0 .905.114 1.231.342.332.227.589.573.771 1.035Zm16.387 3.457v.879h-7.783v.058c-.052 1.491.231 2.562.849 3.213.625.651 1.504.977 2.637.977a6.39 6.39 0 0 0 1.797-.274 11.02 11.02 0 0 0 2.002-.83v1.787c-.684.28-1.345.489-1.983.625a8.24 8.24 0 0 1-1.836.215c-1.699 0-3.027-.508-3.984-1.523-.957-1.022-1.436-2.429-1.436-4.219 0-1.745.469-3.138 1.407-4.18.937-1.041 2.187-1.562 3.75-1.562 1.393 0 2.49.472 3.291 1.416.807.944 1.237 2.083 1.289 3.418Zm-1.797-.528a3.443 3.443 0 0 0-.83-1.953c-.469-.553-1.146-.83-2.031-.83-.866 0-1.579.287-2.139.86-.56.573-.866 1.217-.918 1.933l5.918-.01Z" fill="#1E1E1E"/>
  </g>
  <g filter="url(#b)">
    <path d="M636 20a8 8 0 0 1 8-8h1064c4.42 0 8 3.582 8 8v1077c0 4.42-3.58 8-8 8H644a8 8 0 0 1-8-8V20Z" fill="#F0F0F0"/>
    <path d="M644 12.5h1064c4.14 0 7.5 3.358 7.5 7.5v1077c0 4.14-3.36 7.5-7.5 7.5H644c-4.142 0-7.5-3.36-7.5-7.5V20a7.5 7.5 0 0 1 7.5-7.5Z" stroke="#949494"/>
    <path d="M1108.15 564.982a6.758 6.758 0 0 1-3.22.801c-1.87 0-3.32-.661-4.36-1.982-1.03-1.322-1.54-3.181-1.54-5.576 0-2.383.51-4.239 1.55-5.567 1.04-1.334 2.49-2.002 4.35-2.002a6.736 6.736 0 0 1 3.22.801v2.022c-.48-.398-1-.7-1.55-.909a4.742 4.742 0 0 0-1.67-.312c-1.29 0-2.25.495-2.89 1.484-.63.99-.95 2.484-.95 4.483 0 1.992.32 3.483.95 4.472.64.99 1.6 1.485 2.89 1.485.57 0 1.13-.105 1.68-.313a5.407 5.407 0 0 0 1.54-.908v2.021Zm7.59-9.16c-.92 0-1.61.355-2.07 1.065-.47.709-.71 1.761-.71 3.154 0 1.387.24 2.438.71 3.154.46.71 1.15 1.065 2.07 1.065.91 0 1.61-.355 2.08-1.065.47-.716.7-1.767.7-3.154 0-1.393-.23-2.445-.7-3.154-.47-.71-1.17-1.065-2.08-1.065Zm0-1.523c1.51 0 2.67.491 3.47 1.474.81.984 1.21 2.406 1.21 4.268 0 1.869-.4 3.294-1.2 4.277-.8.977-1.96 1.465-3.48 1.465s-2.68-.488-3.48-1.465c-.8-.983-1.2-2.408-1.2-4.277 0-1.862.4-3.284 1.2-4.268.8-.983 1.96-1.474 3.48-1.474Zm16.3 4.424v6.777h-1.81v-6.777c0-.983-.17-1.706-.52-2.168-.34-.463-.88-.694-1.62-.694-.84 0-1.49.3-1.94.899-.45.592-.68 1.445-.68 2.558v6.182h-1.79v-10.938h1.79v1.641c.32-.625.75-1.097 1.3-1.416.55-.325 1.2-.488 1.94-.488 1.12 0 1.95.368 2.5 1.103.55.73.83 1.836.83 3.321Zm7.78-7.266v3.105h4.08v1.397h-4.08v5.937c0 .808.15 1.371.46 1.69.3.319.84.478 1.6.478h2.02v1.436h-2.2c-1.34 0-2.3-.27-2.85-.811-.55-.54-.83-1.471-.83-2.793v-5.937h-2.92v-1.397h2.92v-3.105h1.8Zm16.99 7.676v.879h-7.78v.058c-.05 1.491.23 2.562.85 3.213.62.651 1.5.977 2.63.977.58 0 1.18-.091 1.8-.274.63-.182 1.29-.459 2-.83v1.787c-.68.28-1.34.489-1.98.625a8.22 8.22 0 0 1-1.84.215c-1.7 0-3.02-.508-3.98-1.523-.96-1.022-1.44-2.429-1.44-4.219 0-1.745.47-3.138 1.41-4.18.94-1.041 2.19-1.562 3.75-1.562 1.39 0 2.49.472 3.29 1.416.81.944 1.24 2.083 1.29 3.418Zm-1.8-.528a3.358 3.358 0 0 0-.83-1.953c-.47-.553-1.14-.83-2.03-.83-.86 0-1.58.287-2.14.86s-.86 1.217-.91 1.933l5.91-.01Zm13.18.118v6.777h-1.81v-6.777c0-.983-.17-1.706-.52-2.168-.34-.463-.88-.694-1.62-.694-.84 0-1.49.3-1.94.899-.45.592-.68 1.445-.68 2.558v6.182h-1.79v-10.938h1.79v1.641c.32-.625.76-1.097 1.3-1.416.55-.325 1.2-.488 1.95-.488 1.11 0 1.94.368 2.49 1.103.55.73.83 1.836.83 3.321Zm7.78-7.266v3.105h4.08v1.397h-4.08v5.937c0 .808.15 1.371.46 1.69.31.319.84.478 1.6.478h2.02v1.436h-2.19c-1.35 0-2.3-.27-2.86-.811-.55-.54-.83-1.471-.83-2.793v-5.937h-2.92v-1.397h2.92v-3.105h1.8Zm20.38-.537h8.59v1.66h-6.61v3.906h5.99v1.66h-5.99v7.354h-1.98v-14.58Zm21.06 5.898a4.162 4.162 0 0 0-1.18-.654 3.93 3.93 0 0 0-1.3-.205c-1.12 0-1.98.352-2.57 1.055-.6.703-.89 1.718-.89 3.047v5.439h-1.81v-10.938h1.81v2.139c.3-.775.76-1.367 1.38-1.777.62-.417 1.36-.625 2.21-.625.45 0 .86.055 1.24.166.39.111.75.283 1.11.517v1.836Zm7.62 3.184h-.59c-1.05 0-1.84.186-2.38.557-.52.364-.79.911-.79 1.64 0 .658.2 1.169.6 1.533.4.365.95.547 1.65.547.99 0 1.77-.341 2.33-1.025.57-.69.86-1.641.86-2.852v-.4h-1.68Zm3.49-.742v6.24h-1.81v-1.621c-.38.651-.87 1.133-1.45 1.445-.58.306-1.29.459-2.12.459-1.11 0-2-.312-2.67-.937-.66-.632-.99-1.475-.99-2.53 0-1.217.4-2.142 1.22-2.773.82-.632 2.02-.947 3.6-.947h2.41v-.284c0-.872-.22-1.503-.66-1.894-.44-.397-1.13-.596-2.09-.596-.61 0-1.23.088-1.86.264-.62.176-1.23.433-1.82.771v-1.796c.66-.254 1.3-.443 1.9-.567.61-.13 1.21-.195 1.78-.195.9 0 1.68.133 2.31.4.65.267 1.17.668 1.57 1.201.24.326.42.73.52 1.211.11.476.16 1.192.16 2.149Zm8.31-3.584c.22-.469.5-.814.84-1.035.34-.228.76-.342 1.24-.342.88 0 1.5.342 1.86 1.025.36.677.54 1.957.54 3.838v6.338h-1.64v-6.26c0-1.543-.09-2.5-.26-2.871-.17-.377-.48-.566-.94-.566-.52 0-.88.202-1.07.605-.19.397-.29 1.341-.29 2.832v6.26h-1.64v-6.26c0-1.562-.09-2.526-.28-2.89-.18-.365-.51-.547-1-.547-.47 0-.8.202-.99.605-.19.397-.28 1.341-.28 2.832v6.26h-1.63v-10.938h1.63v.938c.22-.391.49-.687.8-.889.33-.208.7-.312 1.11-.312.49 0 .9.114 1.23.342.33.227.59.573.77 1.035Zm16.39 3.457v.879h-7.79v.058c-.05 1.491.23 2.562.85 3.213.63.651 1.51.977 2.64.977.57 0 1.17-.091 1.8-.274.62-.182 1.29-.459 2-.83v1.787c-.68.28-1.35.489-1.98.625-.64.144-1.25.215-1.84.215-1.7 0-3.03-.508-3.98-1.523-.96-1.022-1.44-2.429-1.44-4.219 0-1.745.47-3.138 1.41-4.18.93-1.041 2.18-1.562 3.75-1.562 1.39 0 2.49.472 3.29 1.416.81.944 1.23 2.083 1.29 3.418Zm-1.8-.528c-.08-.755-.35-1.406-.83-1.953-.47-.553-1.15-.83-2.03-.83-.87 0-1.58.287-2.14.86s-.87 1.217-.92 1.933l5.92-.01Z" fill="#1E1E1E"/>
  </g>
  <defs>
    <filter id="a" x="260" y="11" width="368" height="1102" filterUnits="userSpaceOnUse" color-interpolation-filters="sRGB">
      <feFlood flood-opacity="0" result="BackgroundImageFix"/>
      <feColorMatrix in="SourceAlpha" values="0 0 0 0 0 0 0 0 0 0 0 0 0 0 0 0 0 0 127 0" result="hardAlpha"/>
      <feOffset dy="4"/>
      <feGaussianBlur stdDeviation="2"/>
      <feComposite in2="hardAlpha" operator="out"/>
      <feColorMatrix values="0 0 0 0 0 0 0 0 0 0 0 0 0 0 0 0 0 0 0.01 0"/>
      <feBlend in2="BackgroundImageFix" result="effect1_dropShadow_18808_33283"/>
      <feColorMatrix in="SourceAlpha" values="0 0 0 0 0 0 0 0 0 0 0 0 0 0 0 0 0 0 127 0" result="hardAlpha"/>
      <feOffset dy="3"/>
      <feGaussianBlur stdDeviation="1.5"/>
      <feComposite in2="hardAlpha" operator="out"/>
      <feColorMatrix values="0 0 0 0 0 0 0 0 0 0 0 0 0 0 0 0 0 0 0.02 0"/>
      <feBlend in2="effect1_dropShadow_18808_33283" result="effect2_dropShadow_18808_33283"/>
      <feColorMatrix in="SourceAlpha" values="0 0 0 0 0 0 0 0 0 0 0 0 0 0 0 0 0 0 127 0" result="hardAlpha"/>
      <feOffset dy="1"/>
      <feGaussianBlur stdDeviation="1"/>
      <feComposite in2="hardAlpha" operator="out"/>
      <feColorMatrix values="0 0 0 0 0 0 0 0 0 0 0 0 0 0 0 0 0 0 0.02 0"/>
      <feBlend in2="effect2_dropShadow_18808_33283" result="effect3_dropShadow_18808_33283"/>
      <feColorMatrix in="SourceAlpha" values="0 0 0 0 0 0 0 0 0 0 0 0 0 0 0 0 0 0 127 0" result="hardAlpha"/>
      <feOffset dy="1"/>
      <feGaussianBlur stdDeviation=".5"/>
      <feComposite in2="hardAlpha" operator="out"/>
      <feColorMatrix values="0 0 0 0 0 0 0 0 0 0 0 0 0 0 0 0 0 0 0.03 0"/>
      <feBlend in2="effect3_dropShadow_18808_33283" result="effect4_dropShadow_18808_33283"/>
      <feBlend in="SourceGraphic" in2="effect4_dropShadow_18808_33283" result="shape"/>
    </filter>
    <filter id="b" x="632" y="11" width="1088" height="1102" filterUnits="userSpaceOnUse" color-interpolation-filters="sRGB">
      <feFlood flood-opacity="0" result="BackgroundImageFix"/>
      <feColorMatrix in="SourceAlpha" values="0 0 0 0 0 0 0 0 0 0 0 0 0 0 0 0 0 0 127 0" result="hardAlpha"/>
      <feOffset dy="4"/>
      <feGaussianBlur stdDeviation="2"/>
      <feComposite in2="hardAlpha" operator="out"/>
      <feColorMatrix values="0 0 0 0 0 0 0 0 0 0 0 0 0 0 0 0 0 0 0.01 0"/>
      <feBlend in2="BackgroundImageFix" result="effect1_dropShadow_18808_33283"/>
      <feColorMatrix in="SourceAlpha" values="0 0 0 0 0 0 0 0 0 0 0 0 0 0 0 0 0 0 127 0" result="hardAlpha"/>
      <feOffset dy="3"/>
      <feGaussianBlur stdDeviation="1.5"/>
      <feComposite in2="hardAlpha" operator="out"/>
      <feColorMatrix values="0 0 0 0 0 0 0 0 0 0 0 0 0 0 0 0 0 0 0.02 0"/>
      <feBlend in2="effect1_dropShadow_18808_33283" result="effect2_dropShadow_18808_33283"/>
      <feColorMatrix in="SourceAlpha" values="0 0 0 0 0 0 0 0 0 0 0 0 0 0 0 0 0 0 127 0" result="hardAlpha"/>
      <feOffset dy="1"/>
      <feGaussianBlur stdDeviation="1"/>
      <feComposite in2="hardAlpha" operator="out"/>
      <feColorMatrix values="0 0 0 0 0 0 0 0 0 0 0 0 0 0 0 0 0 0 0.02 0"/>
      <feBlend in2="effect2_dropShadow_18808_33283" result="effect3_dropShadow_18808_33283"/>
      <feColorMatrix in="SourceAlpha" values="0 0 0 0 0 0 0 0 0 0 0 0 0 0 0 0 0 0 127 0" result="hardAlpha"/>
      <feOffset dy="1"/>
      <feGaussianBlur stdDeviation=".5"/>
      <feComposite in2="hardAlpha" operator="out"/>
      <feColorMatrix values="0 0 0 0 0 0 0 0 0 0 0 0 0 0 0 0 0 0 0.03 0"/>
      <feBlend in2="effect3_dropShadow_18808_33283" result="effect4_dropShadow_18808_33283"/>
      <feBlend in="SourceGraphic" in2="effect4_dropShadow_18808_33283" result="shape"/>
    </filter>
  </defs>
</svg>