<svg width="1728" height="1117" fill="none" xmlns="http://www.w3.org/2000/svg">
  <path fill="#E0E0E0" d="M0 0h1728v1117H0z"/>
  <path d="M99.705 551.418v2.002a7.764 7.764 0 0 0-1.807-.869 5.806 5.806 0 0 0-1.816-.293c-.931 0-1.667.218-2.207.654-.54.43-.81 1.012-.81 1.748 0 .645.175 1.136.527 1.475.358.338 1.022.622 1.992.849l1.035.235c1.367.319 2.363.82 2.988 1.504.625.683.938 1.614.938 2.793 0 1.386-.43 2.444-1.29 3.173-.858.73-2.108 1.094-3.75 1.094-.683 0-1.37-.075-2.06-.224a11.333 11.333 0 0 1-2.08-.655v-2.099c.749.475 1.455.823 2.12 1.045.67.221 1.344.332 2.02.332.997 0 1.772-.222 2.325-.664.553-.45.83-1.075.83-1.875 0-.73-.192-1.286-.576-1.67-.378-.384-1.038-.681-1.982-.889l-1.055-.244c-1.354-.306-2.337-.768-2.95-1.387-.611-.618-.917-1.448-.917-2.49 0-1.302.436-2.344 1.308-3.125.88-.788 2.045-1.182 3.496-1.182.56 0 1.15.065 1.768.196.618.123 1.27.312 1.953.566Zm5.254 3.184h4.6v9.502h3.564v1.396h-8.926v-1.396h3.565v-8.106h-2.803v-1.396Zm2.803-4.248h1.797v2.265h-1.797v-2.265Zm14.541 5.605v-5.654h1.797V565.5h-1.797v-1.377c-.3.54-.7.954-1.201 1.24-.495.28-1.068.42-1.719.42-1.322 0-2.363-.511-3.125-1.533-.755-1.029-1.133-2.445-1.133-4.248 0-1.777.381-3.171 1.143-4.18.761-1.015 1.8-1.523 3.115-1.523.657 0 1.237.143 1.738.43.501.279.895.69 1.182 1.23Zm-5.283 4.082c0 1.393.221 2.445.664 3.154.442.71 1.097 1.065 1.962 1.065.866 0 1.524-.358 1.973-1.074.456-.717.684-1.765.684-3.145 0-1.387-.228-2.435-.684-3.145-.449-.716-1.107-1.074-1.973-1.074-.865 0-1.52.355-1.962 1.065-.443.709-.664 1.761-.664 3.154Zm19.892-.908v.879h-7.783v.058c-.052 1.491.231 2.562.85 3.213.625.651 1.503.977 2.636.977a6.39 6.39 0 0 0 1.797-.274 11.02 11.02 0 0 0 2.002-.83v1.787c-.684.28-1.344.489-1.982.625a8.253 8.253 0 0 1-1.836.215c-1.7 0-3.028-.508-3.985-1.523-.957-1.022-1.435-2.429-1.435-4.219 0-1.745.469-3.138 1.406-4.18.938-1.041 2.188-1.562 3.75-1.562 1.393 0 2.49.472 3.291 1.416.807.944 1.237 2.083 1.289 3.418Zm-1.797-.528a3.443 3.443 0 0 0-.83-1.953c-.469-.553-1.146-.83-2.031-.83-.866 0-1.579.287-2.139.86-.56.573-.866 1.217-.918 1.933l5.918-.01Zm11.875 1.436c0-1.393-.221-2.445-.664-3.154-.443-.71-1.097-1.065-1.963-1.065-.872 0-1.533.358-1.982 1.074-.449.71-.674 1.758-.674 3.145 0 1.38.225 2.428.674 3.145.449.716 1.11 1.074 1.982 1.074.866 0 1.52-.355 1.963-1.065.443-.709.664-1.761.664-3.154Zm-5.283-4.082c.286-.534.68-.944 1.182-1.23.507-.287 1.093-.43 1.757-.43 1.316 0 2.351.508 3.106 1.523.755 1.009 1.133 2.403 1.133 4.18 0 1.803-.381 3.219-1.143 4.248-.755 1.022-1.793 1.533-3.115 1.533-.651 0-1.227-.14-1.729-.42a3.177 3.177 0 0 1-1.191-1.24v1.377h-1.797v-15.195h1.797v5.654Zm15.225 4.043h-.596c-1.048 0-1.839.186-2.373.557-.527.364-.791.911-.791 1.64 0 .658.198 1.169.596 1.533.397.365.947.547 1.65.547.99 0 1.768-.341 2.334-1.025.566-.69.853-1.641.859-2.852v-.4h-1.679Zm3.486-.742v6.24h-1.807v-1.621c-.384.651-.869 1.133-1.455 1.445-.579.306-1.286.459-2.119.459-1.113 0-2.002-.312-2.666-.937-.664-.632-.996-1.475-.996-2.53 0-1.217.407-2.142 1.221-2.773.82-.632 2.021-.947 3.603-.947h2.412v-.284c-.006-.872-.228-1.503-.664-1.894-.436-.397-1.133-.596-2.09-.596-.612 0-1.23.088-1.855.264a8.109 8.109 0 0 0-1.826.771v-1.796a12.214 12.214 0 0 1 1.904-.567 8.55 8.55 0 0 1 1.777-.195c.905 0 1.677.133 2.315.4a3.648 3.648 0 0 1 1.562 1.201c.248.326.424.73.528 1.211.104.476.156 1.192.156 2.149Zm12.988-2.442a4.071 4.071 0 0 0-1.172-.654 3.987 3.987 0 0 0-1.308-.205c-1.12 0-1.976.352-2.569 1.055-.592.703-.888 1.718-.888 3.047v5.439h-1.807v-10.938h1.807v2.139c.299-.775.758-1.367 1.377-1.777.625-.417 1.364-.625 2.216-.625.443 0 .857.055 1.241.166.384.111.752.283 1.103.517v1.836Z" fill="#1E1E1E"/>
  <g opacity=".5" filter="url(#a)">
    <path d="M324 29.84a7.84 7.84 0 0 1 7.84-7.84h356.72a7.84 7.84 0 0 1 7.84 7.84v964.32a7.84 7.84 0 0 1-7.84 7.84H331.84a7.84 7.84 0 0 1-7.84-7.84V29.84Z" fill="#fff"/>
    <path d="M395.391 495.387c-4.766 0-7.775-3.284-7.775-8.579v-.011c0-5.295 3.02-8.556 7.775-8.556 3.813 0 6.615 2.377 7.051 5.754l.012.114h-2.906l-.057-.218c-.483-1.895-1.941-3.078-4.1-3.078-2.894 0-4.743 2.309-4.743 5.984v.011c0 3.687 1.86 6.007 4.743 6.007 2.113 0 3.595-1.137 4.134-3.182l.035-.114h2.905l-.023.114c-.425 3.4-3.238 5.754-7.051 5.754Zm13.954-.046c-3.583 0-5.892-2.389-5.892-6.328v-.023c0-3.904 2.343-6.316 5.88-6.316 3.549 0 5.903 2.389 5.903 6.316v.023c0 3.951-2.319 6.328-5.891 6.328Zm.011-2.308c1.803 0 2.963-1.47 2.963-4.02v-.023c0-2.538-1.171-3.996-2.986-3.996-1.78 0-2.963 1.47-2.963 3.996v.023c0 2.561 1.16 4.02 2.986 4.02Zm7.247 2.067v-12.173h2.86v1.906h.058c.631-1.309 1.871-2.159 3.72-2.159 2.676 0 4.204 1.723 4.204 4.548v7.878h-2.86v-7.304c0-1.734-.804-2.71-2.435-2.71-1.642 0-2.687 1.194-2.687 2.951v7.063h-2.86Zm17.193.241c-2.549 0-3.755-1.033-3.755-3.537v-6.672h-1.723v-2.205h1.723v-3.09h2.905v3.09h2.263v2.205h-2.263v6.431c0 1.194.528 1.573 1.574 1.573.275 0 .493-.034.689-.046v2.148a10.4 10.4 0 0 1-1.413.103Zm8.028 0c-3.652 0-5.857-2.423-5.857-6.293v-.012c0-3.836 2.24-6.362 5.719-6.362 3.48 0 5.639 2.446 5.639 6.121v.919h-8.521c.046 2.136 1.217 3.399 3.078 3.399 1.424 0 2.354-.758 2.629-1.573l.023-.081h2.676l-.034.127c-.379 1.872-2.171 3.755-5.352 3.755Zm-.103-10.428c-1.516 0-2.653 1.022-2.883 2.894h5.708c-.207-1.929-1.309-2.894-2.825-2.894Zm6.983 10.187v-12.173h2.859v1.906h.058c.631-1.309 1.872-2.159 3.721-2.159 2.676 0 4.203 1.723 4.203 4.548v7.878h-2.86v-7.304c0-1.734-.804-2.71-2.434-2.71-1.643 0-2.688 1.194-2.688 2.951v7.063h-2.859Zm17.192.241c-2.549 0-3.755-1.033-3.755-3.537v-6.672h-1.723v-2.205h1.723v-3.09h2.905v3.09h2.263v2.205h-2.263v6.431c0 1.194.529 1.573 1.574 1.573.275 0 .494-.034.689-.046v2.148a10.4 10.4 0 0 1-1.413.103Zm10.739-.034c-2.435 0-4.077-1.505-4.077-3.675v-.023c0-2.159 1.677-3.457 4.628-3.641l3.181-.195v-.838c0-1.229-.803-1.976-2.25-1.976-1.356 0-2.182.632-2.366 1.528l-.023.103h-2.653l.011-.138c.173-2.159 2.045-3.778 5.134-3.778 3.043 0 5.007 1.608 5.007 4.054v8.372h-2.86v-1.872h-.068c-.701 1.275-2.056 2.079-3.664 2.079Zm-1.229-3.79c0 .999.827 1.608 2.079 1.608 1.642 0 2.882-1.091 2.882-2.538v-.919l-2.779.172c-1.412.092-2.182.701-2.182 1.665v.012Zm9.659 3.583v-12.173h2.86v2.101h.057c.379-1.47 1.39-2.354 2.791-2.354.356 0 .689.057.907.115v2.584c-.241-.092-.678-.161-1.16-.161-1.619 0-2.595 1.022-2.595 2.825v7.063h-2.86Zm12.507.241c-3.652 0-5.857-2.423-5.857-6.293v-.012c0-3.836 2.239-6.362 5.719-6.362 3.48 0 5.639 2.446 5.639 6.121v.919h-8.521c.046 2.136 1.217 3.399 3.077 3.399 1.424 0 2.355-.758 2.63-1.573l.023-.081h2.676l-.034.127c-.379 1.872-2.171 3.755-5.352 3.755Zm-.103-10.428c-1.516 0-2.653 1.022-2.883 2.894h5.708c-.207-1.929-1.309-2.894-2.825-2.894Zm10.577 10.394c-2.434 0-4.077-1.505-4.077-3.675v-.023c0-2.159 1.677-3.457 4.628-3.641l3.182-.195v-.838c0-1.229-.804-1.976-2.251-1.976-1.355 0-2.182.632-2.366 1.528l-.023.103h-2.653l.012-.138c.172-2.159 2.044-3.778 5.133-3.778 3.043 0 5.007 1.608 5.007 4.054v8.372h-2.859v-1.872h-.069c-.701 1.275-2.056 2.079-3.664 2.079Zm-1.229-3.79c0 .999.827 1.608 2.079 1.608 1.642 0 2.883-1.091 2.883-2.538v-.919l-2.78.172c-1.412.092-2.182.701-2.182 1.665v.012Z" fill="#1E1E1E"/>
    <path d="M390.465 523.9v-8.582h-3.115v-1.085h7.436v1.085h-3.115v8.582h-1.206Zm6.103 0v-10.089h1.166v3.952h.107c.362-.763 1.038-1.212 2.103-1.212 1.622 0 2.526.958 2.526 2.673v4.676h-1.166v-4.395c0-1.299-.536-1.922-1.688-1.922s-1.882.777-1.882 2.043v4.274h-1.166Zm10.96.127c-2.063 0-3.309-1.447-3.309-3.711v-.007c0-2.231 1.272-3.758 3.235-3.758 1.963 0 3.156 1.46 3.156 3.617v.456h-5.199c.034 1.494.858 2.365 2.144 2.365.978 0 1.581-.462 1.775-.898l.027-.06h1.166l-.014.053c-.248.979-1.279 1.943-2.981 1.943Zm-.08-6.438c-1.072 0-1.89.731-2.017 2.104h3.993c-.121-1.427-.911-2.104-1.976-2.104Zm11.784 6.438c-2.024 0-3.317-1.467-3.317-3.758v-.013c0-2.245 1.287-3.705 3.31-3.705 1.755 0 2.807 1.012 3.021 2.298l.007.04h-1.159l-.007-.02c-.181-.71-.824-1.286-1.862-1.286-1.3 0-2.117 1.045-2.117 2.673v.013c0 1.661.831 2.727 2.117 2.727.971 0 1.588-.429 1.856-1.233l.013-.04 1.152-.007-.013.074c-.295 1.306-1.266 2.237-3.001 2.237Zm7.69 0c-2.056 0-3.329-1.42-3.329-3.731v-.014c0-2.318 1.273-3.731 3.329-3.731 2.057 0 3.33 1.413 3.33 3.731v.014c0 2.311-1.273 3.731-3.33 3.731Zm0-1.031c1.367 0 2.137-.999 2.137-2.7v-.014c0-1.708-.77-2.699-2.137-2.699-1.366 0-2.137.991-2.137 2.699v.014c0 1.701.771 2.7 2.137 2.7Zm5.139.904v-7.222h1.165v1.085h.107c.362-.763 1.039-1.212 2.104-1.212 1.621 0 2.526.958 2.526 2.673v4.676h-1.166v-4.395c0-1.299-.536-1.922-1.688-1.922-1.153 0-1.883.777-1.883 2.043v4.274h-1.165Zm10.578.054c-1.488 0-2.111-.55-2.111-1.93v-4.381h-1.139v-.965h1.139v-1.869h1.206v1.869h1.581v.965h-1.581v4.086c0 .851.295 1.193 1.045 1.193.208 0 .322-.007.536-.027v.992c-.228.04-.449.067-.676.067Zm5.258.073c-2.063 0-3.309-1.447-3.309-3.711v-.007c0-2.231 1.273-3.758 3.236-3.758 1.963 0 3.155 1.46 3.155 3.617v.456h-5.198c.033 1.494.857 2.365 2.143 2.365.978 0 1.581-.462 1.776-.898l.026-.06h1.166l-.013.053c-.248.979-1.28 1.943-2.982 1.943Zm-.08-6.438c-1.072 0-1.889.731-2.016 2.104h3.992c-.12-1.427-.911-2.104-1.976-2.104Zm4.971 6.311v-7.222h1.166v1.085h.107c.362-.763 1.038-1.212 2.103-1.212 1.622 0 2.526.958 2.526 2.673v4.676h-1.166v-4.395c0-1.299-.536-1.922-1.688-1.922s-1.882.777-1.882 2.043v4.274h-1.166Zm10.578.054c-1.487 0-2.11-.55-2.11-1.93v-4.381h-1.139v-.965h1.139v-1.869h1.206v1.869h1.581v.965h-1.581v4.086c0 .851.294 1.193 1.045 1.193.207 0 .321-.007.536-.027v.992c-.228.04-.449.067-.677.067Zm8.26.073c-1.373 0-2.412-.83-2.412-2.144v-.013c0-1.286.952-2.03 2.633-2.13l2.07-.128v-.656c0-.891-.542-1.373-1.621-1.373-.864 0-1.434.321-1.621.884l-.007.02h-1.166l.007-.04c.188-1.132 1.286-1.896 2.827-1.896 1.762 0 2.747.904 2.747 2.405v4.944h-1.166v-1.065h-.107c-.455.77-1.212 1.192-2.184 1.192Zm-1.219-2.17c0 .73.623 1.159 1.46 1.159 1.186 0 2.05-.777 2.05-1.809v-.657l-1.929.121c-1.099.067-1.581.455-1.581 1.172v.014Zm6.806 2.043v-7.222h1.166v1.072h.107c.275-.757.951-1.199 1.929-1.199.222 0 .469.027.583.047v1.132a4.208 4.208 0 0 0-.716-.067c-1.113 0-1.903.703-1.903 1.762v4.475h-1.166Zm7.972.127c-2.063 0-3.309-1.447-3.309-3.711v-.007c0-2.231 1.273-3.758 3.236-3.758 1.963 0 3.155 1.46 3.155 3.617v.456h-5.199c.034 1.494.858 2.365 2.144 2.365.978 0 1.581-.462 1.775-.898l.027-.06h1.166l-.014.053c-.247.979-1.279 1.943-2.981 1.943Zm-.08-6.438c-1.072 0-1.889.731-2.017 2.104h3.993c-.12-1.427-.911-2.104-1.976-2.104Zm6.954 6.438c-1.374 0-2.412-.83-2.412-2.144v-.013c0-1.286.951-2.03 2.633-2.13l2.07-.128v-.656c0-.891-.543-1.373-1.621-1.373-.865 0-1.434.321-1.622.884l-.006.02h-1.166l.007-.04c.187-1.132 1.286-1.896 2.827-1.896 1.762 0 2.747.904 2.747 2.405v4.944h-1.166v-1.065h-.107c-.456.77-1.213 1.192-2.184 1.192Zm-1.22-2.17c0 .73.624 1.159 1.461 1.159 1.186 0 2.05-.777 2.05-1.809v-.657l-1.93.121c-1.098.067-1.581.455-1.581 1.172v.014Zm11.282-6.572a.807.807 0 0 1-.804-.804c0-.442.362-.804.804-.804.442 0 .804.362.804.804a.807.807 0 0 1-.804.804Zm-.59 8.615v-7.222h1.166v7.222h-1.166Zm5.842.127c-1.608 0-2.713-.777-2.847-1.969h1.192c.195.603.771.998 1.695.998.972 0 1.662-.462 1.662-1.119v-.013c0-.489-.369-.831-1.26-1.045l-1.118-.268c-1.354-.322-1.963-.911-1.963-1.95v-.007c0-1.199 1.152-2.103 2.686-2.103 1.514 0 2.566.757 2.727 1.936h-1.146c-.154-.569-.717-.965-1.588-.965-.857 0-1.487.442-1.487 1.079v.013c0 .489.362.797 1.213 1.005l1.112.268c1.36.328 2.016.918 2.016 1.95v.013c0 1.286-1.253 2.177-2.894 2.177Zm11.128-.073c-1.488 0-2.111-.55-2.111-1.93v-4.381h-1.139v-.965h1.139v-1.869h1.206v1.869h1.581v.965h-1.581v4.086c0 .851.295 1.193 1.045 1.193.208 0 .322-.007.536-.027v.992c-.228.04-.449.067-.676.067Zm2.485-.054v-10.089h1.166v3.952h.107c.362-.763 1.038-1.212 2.103-1.212 1.622 0 2.526.958 2.526 2.673v4.676h-1.166v-4.395c0-1.299-.536-1.922-1.688-1.922s-1.882.777-1.882 2.043v4.274h-1.166Zm10.96.127c-2.063 0-3.31-1.447-3.31-3.711v-.007c0-2.231 1.273-3.758 3.236-3.758 1.963 0 3.156 1.46 3.156 3.617v.456h-5.199c.033 1.494.857 2.365 2.144 2.365.978 0 1.581-.462 1.775-.898l.027-.06h1.165l-.013.053c-.248.979-1.28 1.943-2.981 1.943Zm-.081-6.438c-1.071 0-1.889.731-2.016 2.104h3.993c-.121-1.427-.911-2.104-1.977-2.104Zm8.83 8.723v-9.634h1.166v1.152h.107c.442-.803 1.246-1.279 2.251-1.279 1.829 0 3.028 1.48 3.028 3.731v.014c0 2.264-1.193 3.731-3.028 3.731-.992 0-1.856-.495-2.251-1.266h-.107v3.551h-1.166Zm3.256-3.316c1.32 0 2.103-1.019 2.103-2.7v-.014c0-1.681-.783-2.699-2.103-2.699-1.313 0-2.117 1.031-2.117 2.699v.014c0 1.668.804 2.7 2.117 2.7Zm5.118.904v-7.222h1.166v1.072h.107c.275-.757.951-1.199 1.929-1.199.221 0 .469.027.583.047v1.132a4.21 4.21 0 0 0-.717-.067c-1.112 0-1.902.703-1.902 1.762v4.475h-1.166Zm5.842-8.615a.807.807 0 0 1-.804-.804c0-.442.362-.804.804-.804.442 0 .804.362.804.804a.807.807 0 0 1-.804.804Zm-.59 8.615v-7.222h1.166v7.222h-1.166Zm3.363 0v-7.222h1.166v1.099h.107c.322-.777 1.005-1.226 1.95-1.226.978 0 1.661.516 1.996 1.266h.107c.389-.764 1.213-1.266 2.211-1.266 1.474 0 2.298.844 2.298 2.358v4.991h-1.166v-4.723c0-1.065-.489-1.594-1.507-1.594-1.005 0-1.668.757-1.668 1.674v4.643h-1.166v-4.904c0-.857-.59-1.413-1.501-1.413-.944 0-1.661.824-1.661 1.842v4.475h-1.166Zm13.921.127c-1.373 0-2.411-.83-2.411-2.144v-.013c0-1.286.951-2.03 2.632-2.13l2.07-.128v-.656c0-.891-.542-1.373-1.621-1.373-.864 0-1.433.321-1.621.884l-.007.02h-1.165l.006-.04c.188-1.132 1.287-1.896 2.827-1.896 1.762 0 2.747.904 2.747 2.405v4.944h-1.166v-1.065h-.107c-.455.77-1.212 1.192-2.184 1.192Zm-1.219-2.17c0 .73.623 1.159 1.46 1.159 1.186 0 2.05-.777 2.05-1.809v-.657l-1.929.121c-1.099.067-1.581.455-1.581 1.172v.014Zm6.806 2.043v-7.222h1.166v1.072h.107c.275-.757.952-1.199 1.93-1.199.221 0 .469.027.582.047v1.132a4.208 4.208 0 0 0-.716-.067c-1.112 0-1.903.703-1.903 1.762v4.475h-1.166Zm5.842 2.532a3.39 3.39 0 0 1-.516-.04v-.958c.141.027.322.034.483.034.663 0 1.065-.302 1.326-1.133l.134-.428-2.673-7.229h1.246l1.983 5.942h.107l1.977-5.942h1.226l-2.821 7.664c-.596 1.621-1.192 2.09-2.472 2.09Zm13.171-2.405c-1.608 0-2.713-.777-2.847-1.969h1.192c.194.603.77.998 1.695.998.971 0 1.661-.462 1.661-1.119v-.013c0-.489-.368-.831-1.259-1.045l-1.119-.268c-1.353-.322-1.963-.911-1.963-1.95v-.007c0-1.199 1.153-2.103 2.687-2.103 1.514 0 2.565.757 2.726 1.936h-1.145c-.154-.569-.717-.965-1.588-.965-.858 0-1.487.442-1.487 1.079v.013c0 .489.362.797 1.212 1.005l1.112.268c1.36.328 2.017.918 2.017 1.95v.013c0 1.286-1.253 2.177-2.894 2.177Zm4.703 2.285v-9.634h1.165v1.152h.107c.443-.803 1.247-1.279 2.251-1.279 1.829 0 3.028 1.48 3.028 3.731v.014c0 2.264-1.192 3.731-3.028 3.731-.991 0-1.855-.495-2.251-1.266h-.107v3.551h-1.165Zm3.255-3.316c1.32 0 2.104-1.019 2.104-2.7v-.014c0-1.681-.784-2.699-2.104-2.699-1.313 0-2.116 1.031-2.116 2.699v.014c0 1.668.803 2.7 2.116 2.7Zm7.102 1.031c-1.374 0-2.412-.83-2.412-2.144v-.013c0-1.286.951-2.03 2.633-2.13l2.07-.128v-.656c0-.891-.543-1.373-1.621-1.373-.865 0-1.434.321-1.622.884l-.006.02h-1.166l.007-.04c.187-1.132 1.286-1.896 2.827-1.896 1.762 0 2.746.904 2.746 2.405v4.944h-1.165v-1.065h-.107c-.456.77-1.213 1.192-2.184 1.192Zm-1.22-2.17c0 .73.623 1.159 1.461 1.159 1.186 0 2.05-.777 2.05-1.809v-.657l-1.93.121c-1.098.067-1.581.455-1.581 1.172v.014Zm9.761 2.17c-2.023 0-3.316-1.467-3.316-3.758v-.013c0-2.245 1.286-3.705 3.309-3.705 1.756 0 2.807 1.012 3.022 2.298l.006.04h-1.158l-.007-.02c-.181-.71-.824-1.286-1.863-1.286-1.299 0-2.117 1.045-2.117 2.673v.013c0 1.661.831 2.727 2.117 2.727.972 0 1.588-.429 1.856-1.233l.014-.04 1.152-.007-.014.074c-.294 1.306-1.266 2.237-3.001 2.237Zm7.671 0c-2.064 0-3.31-1.447-3.31-3.711v-.007c0-2.231 1.273-3.758 3.236-3.758 1.963 0 3.155 1.46 3.155 3.617v.456h-5.198c.033 1.494.857 2.365 2.144 2.365.978 0 1.581-.462 1.775-.898l.027-.06h1.165l-.013.053c-.248.979-1.28 1.943-2.981 1.943Zm-.081-6.438c-1.072 0-1.889.731-2.016 2.104h3.993c-.121-1.427-.911-2.104-1.977-2.104ZM388.288 542.9v-6.257h-1.199v-.965h1.199v-.804c0-1.44.723-2.13 2.097-2.13.281 0 .536.02.777.067v.931a3.16 3.16 0 0 0-.543-.033c-.831 0-1.166.408-1.166 1.199v.77h1.642v.965h-1.642v6.257h-1.165Zm7.148.127c-2.057 0-3.33-1.42-3.33-3.731v-.014c0-2.318 1.273-3.731 3.33-3.731 2.057 0 3.329 1.413 3.329 3.731v.014c0 2.311-1.272 3.731-3.329 3.731Zm0-1.031c1.367 0 2.137-.999 2.137-2.7v-.014c0-1.708-.77-2.699-2.137-2.699s-2.137.991-2.137 2.699v.014c0 1.701.77 2.7 2.137 2.7Zm5.138.904v-7.222h1.166v1.072h.107c.275-.757.951-1.199 1.929-1.199.222 0 .469.027.583.047v1.132a4.21 4.21 0 0 0-.717-.067c-1.112 0-1.902.703-1.902 1.762v4.475h-1.166Zm9.701-8.615a.807.807 0 0 1-.804-.804c0-.442.362-.804.804-.804.442 0 .804.362.804.804a.807.807 0 0 1-.804.804Zm-.59 8.615v-7.222h1.166v7.222h-1.166Zm3.363 0v-7.222h1.166v1.085h.107c.362-.763 1.038-1.212 2.104-1.212 1.621 0 2.525.958 2.525 2.673v4.676h-1.166v-4.395c0-1.299-.535-1.922-1.688-1.922-1.152 0-1.882.777-1.882 2.043v4.274h-1.166Zm10.679.127c-1.829 0-3.028-1.48-3.028-3.731v-.014c0-2.264 1.192-3.731 3.028-3.731.991 0 1.855.496 2.251 1.266h.107v-4.006h1.165V542.9h-1.165v-1.152h-.107c-.443.804-1.246 1.279-2.251 1.279Zm.268-1.031c1.313 0 2.117-1.032 2.117-2.7v-.014c0-1.668-.804-2.699-2.117-2.699-1.32 0-2.104 1.018-2.104 2.699v.014c0 1.681.784 2.7 2.104 2.7Zm8.441 1.031c-2.064 0-3.31-1.447-3.31-3.711v-.007c0-2.231 1.273-3.758 3.236-3.758 1.963 0 3.155 1.46 3.155 3.617v.456h-5.198c.033 1.494.857 2.365 2.143 2.365.979 0 1.581-.462 1.776-.898l.027-.06h1.165l-.013.053c-.248.979-1.28 1.943-2.981 1.943Zm-.081-6.438c-1.072 0-1.889.731-2.016 2.104h3.993c-.121-1.427-.912-2.104-1.977-2.104Zm4.127 6.311 2.472-3.611-2.499-3.611h1.374l1.715 2.687h.107l1.695-2.687h1.306l-2.452 3.564 2.485 3.658h-1.366l-1.708-2.727h-.108l-1.715 2.727h-1.306Zm7.476 2.459.583-3.812h1.333l-1.051 3.812h-.865Zm10.893-2.332c-1.829 0-3.028-1.48-3.028-3.731v-.014c0-2.264 1.193-3.731 3.028-3.731.992 0 1.856.496 2.251 1.266h.107v-4.006h1.166V542.9h-1.166v-1.152h-.107c-.442.804-1.246 1.279-2.251 1.279Zm.268-1.031c1.313 0 2.117-1.032 2.117-2.7v-.014c0-1.668-.804-2.699-2.117-2.699-1.32 0-2.103 1.018-2.103 2.699v.014c0 1.681.783 2.7 2.103 2.7Zm8.441 1.031c-2.063 0-3.309-1.447-3.309-3.711v-.007c0-2.231 1.273-3.758 3.236-3.758 1.962 0 3.155 1.46 3.155 3.617v.456h-5.199c.034 1.494.858 2.365 2.144 2.365.978 0 1.581-.462 1.775-.898l.027-.06h1.166l-.014.053c-.247.979-1.279 1.943-2.981 1.943Zm-.08-6.438c-1.072 0-1.889.731-2.017 2.104h3.993c-.12-1.427-.911-2.104-1.976-2.104Zm7.536 6.365c-1.487 0-2.11-.55-2.11-1.93v-4.381h-1.139v-.965h1.139v-1.869h1.206v1.869h1.581v.965h-1.581v4.086c0 .851.295 1.193 1.045 1.193.208 0 .322-.007.536-.027v.992c-.228.04-.449.067-.677.067Zm4.402.073c-1.373 0-2.412-.83-2.412-2.144v-.013c0-1.286.951-2.03 2.633-2.13l2.07-.128v-.656c0-.891-.543-1.373-1.621-1.373-.864 0-1.434.321-1.621.884l-.007.02h-1.166l.007-.04c.187-1.132 1.286-1.896 2.827-1.896 1.762 0 2.747.904 2.747 2.405v4.944h-1.166v-1.065h-.107c-.456.77-1.213 1.192-2.184 1.192Zm-1.219-2.17c0 .73.623 1.159 1.46 1.159 1.186 0 2.05-.777 2.05-1.809v-.657l-1.929.121c-1.099.067-1.581.455-1.581 1.172v.014Zm7.422-6.572a.807.807 0 0 1-.804-.804c0-.442.362-.804.804-.804.442 0 .804.362.804.804a.807.807 0 0 1-.804.804Zm-.589 8.615v-7.222h1.165v7.222h-1.165Zm3.43 0v-10.089h1.165V542.9h-1.165Zm3.108 2.459.583-3.812h1.333l-1.052 3.812h-.864Zm10.21-2.332c-1.373 0-2.412-.83-2.412-2.144v-.013c0-1.286.951-2.03 2.633-2.13l2.07-.128v-.656c0-.891-.543-1.373-1.621-1.373-.864 0-1.434.321-1.621.884l-.007.02h-1.166l.007-.04c.187-1.132 1.286-1.896 2.827-1.896 1.762 0 2.747.904 2.747 2.405v4.944h-1.166v-1.065h-.107c-.456.77-1.213 1.192-2.184 1.192Zm-1.219-2.17c0 .73.623 1.159 1.46 1.159 1.186 0 2.05-.777 2.05-1.809v-.657l-1.929.121c-1.099.067-1.581.455-1.581 1.172v.014Zm6.806 2.043v-7.222h1.166v1.085h.107c.362-.763 1.038-1.212 2.103-1.212 1.622 0 2.526.958 2.526 2.673v4.676h-1.166v-4.395c0-1.299-.536-1.922-1.688-1.922s-1.882.777-1.882 2.043v4.274h-1.166Zm10.679.127c-1.829 0-3.028-1.48-3.028-3.731v-.014c0-2.264 1.192-3.731 3.028-3.731.991 0 1.855.496 2.251 1.266h.107v-4.006h1.165V542.9h-1.165v-1.152h-.107c-.443.804-1.247 1.279-2.251 1.279Zm.268-1.031c1.313 0 2.116-1.032 2.116-2.7v-.014c0-1.668-.803-2.699-2.116-2.699-1.32 0-2.104 1.018-2.104 2.699v.014c0 1.681.784 2.7 2.104 2.7Zm11.83 1.031c-1.607 0-2.713-.777-2.847-1.969h1.193c.194.603.77.998 1.695.998.971 0 1.661-.462 1.661-1.119v-.013c0-.489-.369-.831-1.259-1.045l-1.119-.268c-1.354-.322-1.963-.911-1.963-1.95v-.007c0-1.199 1.152-2.103 2.686-2.103 1.514 0 2.566.757 2.727 1.936h-1.146c-.154-.569-.717-.965-1.587-.965-.858 0-1.488.442-1.488 1.079v.013c0 .489.362.797 1.213 1.005l1.112.268c1.36.328 2.016.918 2.016 1.95v.013c0 1.286-1.252 2.177-2.894 2.177Zm7.651 0c-2.063 0-3.31-1.447-3.31-3.711v-.007c0-2.231 1.273-3.758 3.236-3.758 1.963 0 3.156 1.46 3.156 3.617v.456h-5.199c.033 1.494.857 2.365 2.144 2.365.978 0 1.581-.462 1.775-.898l.027-.06h1.165l-.013.053c-.248.979-1.28 1.943-2.981 1.943Zm-.081-6.438c-1.071 0-1.889.731-2.016 2.104h3.993c-.121-1.427-.911-2.104-1.977-2.104Zm7.537 6.365c-1.487 0-2.11-.55-2.11-1.93v-4.381h-1.139v-.965h1.139v-1.869h1.206v1.869h1.581v.965h-1.581v4.086c0 .851.294 1.193 1.045 1.193.207 0 .321-.007.536-.027v.992c-.228.04-.449.067-.677.067Zm4.984 0c-1.487 0-2.11-.55-2.11-1.93v-4.381h-1.139v-.965h1.139v-1.869h1.206v1.869h1.581v.965h-1.581v4.086c0 .851.295 1.193 1.045 1.193.208 0 .322-.007.536-.027v.992c-.228.04-.449.067-.677.067Zm3.035-8.669a.807.807 0 0 1-.804-.804c0-.442.362-.804.804-.804.442 0 .804.362.804.804a.807.807 0 0 1-.804.804Zm-.589 8.615v-7.222h1.165v7.222h-1.165Zm3.363 0v-7.222h1.165v1.085h.107c.362-.763 1.039-1.212 2.104-1.212 1.621 0 2.526.958 2.526 2.673v4.676h-1.166v-4.395c0-1.299-.536-1.922-1.688-1.922-1.153 0-1.883.777-1.883 2.043v4.274h-1.165Zm10.986 2.546c-1.742 0-2.854-.784-3.034-1.97l.013-.007h1.206l.006.007c.128.549.771.938 1.809.938 1.293 0 2.064-.61 2.064-1.675v-1.46h-.108c-.455.797-1.272 1.246-2.264 1.246-1.869 0-3.028-1.447-3.028-3.47v-.014c0-2.023 1.166-3.49 3.055-3.49 1.018 0 1.809.502 2.251 1.32h.08v-1.193h1.166v7.121c0 1.615-1.246 2.647-3.216 2.647Zm-.053-3.953c1.34 0 2.143-1.005 2.143-2.438v-.014c0-1.433-.81-2.458-2.143-2.458-1.34 0-2.09 1.025-2.09 2.458v.014c0 1.433.75 2.438 2.09 2.438Zm7.918 1.534c-1.608 0-2.713-.777-2.847-1.969h1.192c.195.603.771.998 1.695.998.972 0 1.662-.462 1.662-1.119v-.013c0-.489-.369-.831-1.26-1.045l-1.118-.268c-1.354-.322-1.963-.911-1.963-1.95v-.007c0-1.199 1.152-2.103 2.686-2.103 1.514 0 2.566.757 2.727 1.936h-1.146c-.154-.569-.717-.965-1.588-.965-.857 0-1.487.442-1.487 1.079v.013c0 .489.362.797 1.213 1.005l1.112.268c1.36.328 2.016.918 2.016 1.95v.013c0 1.286-1.253 2.177-2.894 2.177Zm10.605-.127-2.673-7.222h1.233l1.976 5.949h.107l1.976-5.949h1.233l-2.673 7.222H581.5Zm6.009-8.615a.807.807 0 0 1-.804-.804c0-.442.362-.804.804-.804.442 0 .804.362.804.804a.807.807 0 0 1-.804.804Zm-.589 8.615v-7.222h1.165v7.222h-1.165Zm6.31.127c-2.063 0-3.309-1.447-3.309-3.711v-.007c0-2.231 1.273-3.758 3.236-3.758 1.963 0 3.155 1.46 3.155 3.617v.456h-5.199c.034 1.494.858 2.365 2.144 2.365.978 0 1.581-.462 1.775-.898l.027-.06h1.166l-.014.053c-.247.979-1.279 1.943-2.981 1.943Zm-.08-6.438c-1.072 0-1.889.731-2.017 2.104h3.993c-.12-1.427-.911-2.104-1.976-2.104Zm6.364 6.311-2.023-7.222h1.166l1.42 5.775h.107l1.615-5.775h1.105l1.615 5.775h.107l1.42-5.775h1.159l-2.023 7.222h-1.173l-1.614-5.587h-.107l-1.608 5.587h-1.166Zm11.509.127c-1.607 0-2.713-.777-2.847-1.969h1.193c.194.603.77.998 1.695.998.971 0 1.661-.462 1.661-1.119v-.013c0-.489-.368-.831-1.259-1.045l-1.119-.268c-1.353-.322-1.963-.911-1.963-1.95v-.007c0-1.199 1.152-2.103 2.686-2.103 1.514 0 2.566.757 2.727 1.936h-1.146c-.154-.569-.716-.965-1.587-.965-.858 0-1.488.442-1.488 1.079v.013c0 .489.362.797 1.213 1.005l1.112.268c1.36.328 2.017.918 2.017 1.95v.013c0 1.286-1.253 2.177-2.895 2.177Zm5.655-.06a.878.878 0 0 1-.871-.871c0-.482.395-.871.871-.871.482 0 .87.389.87.871a.873.873 0 0 1-.87.871Z" fill="#757575"/>
  </g>
  <g filter="url(#b)">
    <path d="M264 20a8 8 0 0 1 8-8h1436c4.42 0 8 3.582 8 8v1077c0 4.42-3.58 8-8 8H272a8 8 0 0 1-8-8V20Z" fill="#fff"/>
    <path d="M264.5 20a7.5 7.5 0 0 1 7.5-7.5h1436c4.14 0 7.5 3.358 7.5 7.5v1077c0 4.14-3.36 7.5-7.5 7.5H272c-4.142 0-7.5-3.36-7.5-7.5V20Z" stroke="#949494"/>
    <path d="M915.566 552.541v5.479h2.286c.911 0 1.621-.241 2.128-.723.515-.482.772-1.156.772-2.022 0-.865-.254-1.536-.762-2.011-.508-.482-1.22-.723-2.138-.723h-2.286Zm-1.972-1.621h4.258c1.627 0 2.861.371 3.701 1.113.84.736 1.259 1.817 1.259 3.242 0 1.439-.419 2.526-1.259 3.262-.834.736-2.067 1.104-3.701 1.104h-2.286v5.859h-1.972v-14.58ZM935 556.818a4.084 4.084 0 0 0-1.172-.654 3.987 3.987 0 0 0-1.308-.205c-1.12 0-1.976.352-2.569 1.055-.592.703-.889 1.718-.889 3.047v5.439h-1.806v-10.938h1.806v2.139c.3-.775.759-1.367 1.377-1.777.625-.417 1.364-.625 2.217-.625.443 0 .856.055 1.24.166.385.111.752.283 1.104.517v1.836Zm11.709 2.315v.879h-7.783v.058c-.052 1.491.231 2.562.849 3.213.625.651 1.504.977 2.637.977a6.39 6.39 0 0 0 1.797-.274 11.02 11.02 0 0 0 2.002-.83v1.787c-.684.28-1.344.489-1.982.625a8.253 8.253 0 0 1-1.836.215c-1.7 0-3.028-.508-3.985-1.523-.957-1.022-1.435-2.429-1.435-4.219 0-1.745.468-3.138 1.406-4.18.937-1.041 2.187-1.562 3.75-1.562 1.393 0 2.49.472 3.291 1.416.807.944 1.237 2.083 1.289 3.418Zm-1.797-.528a3.443 3.443 0 0 0-.83-1.953c-.469-.553-1.146-.83-2.031-.83-.866 0-1.579.287-2.139.86-.56.573-.866 1.217-.918 1.933l5.918-.01Zm3.887-4.043h1.865l3.174 9.18 3.183-9.18h1.866L955 565.5h-2.314l-3.887-10.938Zm14.16.04h4.6v9.502h3.564v1.396h-8.926v-1.396h3.565v-8.106h-2.803v-1.396Zm2.803-4.248h1.797v2.265h-1.797v-2.265Zm17.099 8.779v.879h-7.783v.058c-.052 1.491.231 2.562.85 3.213.625.651 1.504.977 2.636.977a6.39 6.39 0 0 0 1.797-.274 10.99 10.99 0 0 0 2.002-.83v1.787a11.64 11.64 0 0 1-1.982.625 8.253 8.253 0 0 1-1.836.215c-1.699 0-3.027-.508-3.984-1.523-.957-1.022-1.436-2.429-1.436-4.219 0-1.745.469-3.138 1.406-4.18.938-1.041 2.188-1.562 3.75-1.562 1.393 0 2.49.472 3.291 1.416.808.944 1.237 2.083 1.289 3.418Zm-1.797-.528a3.437 3.437 0 0 0-.83-1.953c-.468-.553-1.145-.83-2.031-.83-.866 0-1.579.287-2.139.86-.559.573-.865 1.217-.918 1.933l5.918-.01Zm2.911-4.043h1.777l1.904 8.838 1.563-5.644h1.533l1.582 5.644 1.904-8.838h1.778l-2.559 10.938h-1.719l-1.748-5.996-1.738 5.996h-1.719l-2.558-10.938Zm26.375-3.642h8.59v1.66h-6.61v3.906h5.99v1.66h-5.99v7.354h-1.98v-14.58Zm21.06 5.898a4.162 4.162 0 0 0-1.18-.654 3.93 3.93 0 0 0-1.3-.205c-1.12 0-1.98.352-2.57 1.055-.6.703-.89 1.718-.89 3.047v5.439h-1.81v-10.938h1.81v2.139c.3-.775.76-1.367 1.38-1.777.62-.417 1.36-.625 2.21-.625.45 0 .86.055 1.24.166.39.111.75.283 1.11.517v1.836Zm7.62 3.184h-.59c-1.05 0-1.84.186-2.38.557-.52.364-.79.911-.79 1.64 0 .658.2 1.169.6 1.533.4.365.95.547 1.65.547.99 0 1.77-.341 2.33-1.025.57-.69.86-1.641.86-2.852v-.4h-1.68Zm3.49-.742v6.24h-1.81v-1.621c-.38.651-.87 1.133-1.45 1.445-.58.306-1.29.459-2.12.459-1.11 0-2-.312-2.67-.937-.66-.632-.99-1.475-.99-2.53 0-1.217.4-2.142 1.22-2.773.82-.632 2.02-.947 3.6-.947h2.41v-.284c0-.872-.22-1.503-.66-1.894-.44-.397-1.13-.596-2.09-.596-.61 0-1.23.088-1.86.264-.62.176-1.23.433-1.82.771v-1.796c.66-.254 1.3-.443 1.9-.567.61-.13 1.21-.195 1.78-.195.9 0 1.68.133 2.31.4.65.267 1.17.668 1.57 1.201.24.326.42.73.52 1.211.11.476.16 1.192.16 2.149Zm8.31-3.584c.22-.469.5-.814.84-1.035.34-.228.76-.342 1.24-.342.88 0 1.5.342 1.86 1.025.36.677.54 1.957.54 3.838v6.338h-1.64v-6.26c0-1.543-.09-2.5-.26-2.871-.17-.377-.48-.566-.94-.566-.52 0-.88.202-1.07.605-.19.397-.29 1.341-.29 2.832v6.26h-1.64v-6.26c0-1.562-.09-2.526-.28-2.89-.18-.365-.51-.547-1-.547-.47 0-.8.202-.99.605-.19.397-.28 1.341-.28 2.832v6.26h-1.63v-10.938h1.63v.938c.22-.391.49-.687.8-.889.33-.208.7-.312 1.11-.312.49 0 .9.114 1.23.342.33.227.59.573.77 1.035Zm16.39 3.457v.879h-7.79v.058c-.05 1.491.23 2.562.85 3.213.63.651 1.51.977 2.64.977.57 0 1.17-.091 1.8-.274.62-.182 1.29-.459 2-.83v1.787c-.68.28-1.35.489-1.98.625-.64.144-1.25.215-1.84.215-1.7 0-3.03-.508-3.98-1.523-.96-1.022-1.44-2.429-1.44-4.219 0-1.745.47-3.138 1.41-4.18.93-1.041 2.18-1.562 3.75-1.562 1.39 0 2.49.472 3.29 1.416.81.944 1.23 2.083 1.29 3.418Zm-1.8-.528c-.08-.755-.35-1.406-.83-1.953-.47-.553-1.15-.83-2.03-.83-.87 0-1.58.287-2.14.86s-.87 1.217-.92 1.933l5.92-.01Z" fill="#1E1E1E"/>
  </g>
  <defs>
    <filter id="a" x="317.14" y="21.02" width="386.12" height="1004.5" filterUnits="userSpaceOnUse" color-interpolation-filters="sRGB">
      <feFlood flood-opacity="0" result="BackgroundImageFix"/>
      <feColorMatrix in="SourceAlpha" values="0 0 0 0 0 0 0 0 0 0 0 0 0 0 0 0 0 0 127 0" result="hardAlpha"/>
      <feOffset dy=".98"/>
      <feGaussianBlur stdDeviation=".98"/>
      <feColorMatrix values="0 0 0 0 0 0 0 0 0 0 0 0 0 0 0 0 0 0 0.05 0"/>
      <feBlend in2="BackgroundImageFix" result="effect1_dropShadow_15996_31458"/>
      <feColorMatrix in="SourceAlpha" values="0 0 0 0 0 0 0 0 0 0 0 0 0 0 0 0 0 0 127 0" result="hardAlpha"/>
      <feOffset dy="3.92"/>
      <feGaussianBlur stdDeviation="1.96"/>
      <feColorMatrix values="0 0 0 0 0 0 0 0 0 0 0 0 0 0 0 0 0 0 0.04 0"/>
      <feBlend in2="effect1_dropShadow_15996_31458" result="effect2_dropShadow_15996_31458"/>
      <feColorMatrix in="SourceAlpha" values="0 0 0 0 0 0 0 0 0 0 0 0 0 0 0 0 0 0 127 0" result="hardAlpha"/>
      <feOffset dy="8.82"/>
      <feGaussianBlur stdDeviation="2.94"/>
      <feColorMatrix values="0 0 0 0 0 0 0 0 0 0 0 0 0 0 0 0 0 0 0.03 0"/>
      <feBlend in2="effect2_dropShadow_15996_31458" result="effect3_dropShadow_15996_31458"/>
      <feColorMatrix in="SourceAlpha" values="0 0 0 0 0 0 0 0 0 0 0 0 0 0 0 0 0 0 127 0" result="hardAlpha"/>
      <feOffset dy="16.66"/>
      <feGaussianBlur stdDeviation="3.43"/>
      <feColorMatrix values="0 0 0 0 0 0 0 0 0 0 0 0 0 0 0 0 0 0 0.01 0"/>
      <feBlend in2="effect3_dropShadow_15996_31458" result="effect4_dropShadow_15996_31458"/>
      <feBlend in="SourceGraphic" in2="effect4_dropShadow_15996_31458" result="shape"/>
    </filter>
    <filter id="b" x="260" y="11" width="1460" height="1102" filterUnits="userSpaceOnUse" color-interpolation-filters="sRGB">
      <feFlood flood-opacity="0" result="BackgroundImageFix"/>
      <feColorMatrix in="SourceAlpha" values="0 0 0 0 0 0 0 0 0 0 0 0 0 0 0 0 0 0 127 0" result="hardAlpha"/>
      <feOffset dy="4"/>
      <feGaussianBlur stdDeviation="2"/>
      <feComposite in2="hardAlpha" operator="out"/>
      <feColorMatrix values="0 0 0 0 0 0 0 0 0 0 0 0 0 0 0 0 0 0 0.01 0"/>
      <feBlend in2="BackgroundImageFix" result="effect1_dropShadow_15996_31458"/>
      <feColorMatrix in="SourceAlpha" values="0 0 0 0 0 0 0 0 0 0 0 0 0 0 0 0 0 0 127 0" result="hardAlpha"/>
      <feOffset dy="3"/>
      <feGaussianBlur stdDeviation="1.5"/>
      <feComposite in2="hardAlpha" operator="out"/>
      <feColorMatrix values="0 0 0 0 0 0 0 0 0 0 0 0 0 0 0 0 0 0 0.02 0"/>
      <feBlend in2="effect1_dropShadow_15996_31458" result="effect2_dropShadow_15996_31458"/>
      <feColorMatrix in="SourceAlpha" values="0 0 0 0 0 0 0 0 0 0 0 0 0 0 0 0 0 0 127 0" result="hardAlpha"/>
      <feOffset dy="1"/>
      <feGaussianBlur stdDeviation="1"/>
      <feComposite in2="hardAlpha" operator="out"/>
      <feColorMatrix values="0 0 0 0 0 0 0 0 0 0 0 0 0 0 0 0 0 0 0.02 0"/>
      <feBlend in2="effect2_dropShadow_15996_31458" result="effect3_dropShadow_15996_31458"/>
      <feColorMatrix in="SourceAlpha" values="0 0 0 0 0 0 0 0 0 0 0 0 0 0 0 0 0 0 127 0" result="hardAlpha"/>
      <feOffset dy="1"/>
      <feGaussianBlur stdDeviation=".5"/>
      <feComposite in2="hardAlpha" operator="out"/>
      <feColorMatrix values="0 0 0 0 0 0 0 0 0 0 0 0 0 0 0 0 0 0 0.03 0"/>
      <feBlend in2="effect3_dropShadow_15996_31458" result="effect4_dropShadow_15996_31458"/>
      <feBlend in="SourceGraphic" in2="effect4_dropShadow_15996_31458" result="shape"/>
    </filter>
  </defs>
</svg>